<?xml version="1.0" standalone="no"?>
<!DOCTYPE svg PUBLIC "-//W3C//DTD SVG 20010904//EN"
 "http://www.w3.org/TR/2001/REC-SVG-20010904/DTD/svg10.dtd">
<svg version="1.0" xmlns="http://www.w3.org/2000/svg"
 width="16.000000pt" height="16.000000pt" viewBox="0 0 16.000000 16.000000"
 preserveAspectRatio="xMidYMid meet">
<metadata>
Created by potrace 1.11, written by Peter Selinger 2001-2013
</metadata>
<g transform="translate(0.000000,16.000000) scale(0.004000,-0.004000)"
fill="#000000" stroke="none">
<path d="M1882 2780 c-157 -22 -294 -92 -412 -210 -96 -96 -141 -165 -181
-281 -58 -162 -58 -336 0 -498 40 -116 85 -185 182 -282 71 -72 101 -94 180
-133 122 -60 200 -79 324 -79 195 -1 363 70 505 213 96 96 141 165 181 281 74
208 51 444 -62 636 -54 93 -189 221 -284 270 -140 72 -294 102 -433 83z"/>
</g>
</svg>
